<?xml version="1.0" encoding="UTF-8"?>
<svg width="16" height="16" fill="none" version="1.1" viewBox="0 0 16 16" xmlns="http://www.w3.org/2000/svg"><path d="m8 6.29-6.3 6c-0.107 0.102-0.23 0.152-0.369 0.152-0.139 0-0.262-0.0509-0.369-0.152l-0.802-0.764c-0.107-0.102-0.16-0.219-0.16-0.351 0-0.133 0.0536-0.25 0.16-0.352l7.47-7.12c0.107-0.102 0.23-0.153 0.369-0.153 0.139 0 0.262 0.0508 0.369 0.153l7.47 7.12c0.107 0.102 0.16 0.219 0.16 0.351 0 0.133-0.0532 0.249-0.16 0.351l-0.801 0.764c-0.107 0.102-0.23 0.153-0.369 0.153-0.139 0-0.262-0.0507-0.369-0.153z" fill="#FF0000" stroke-width="1.33"/></svg>
